<svg id="Layer_1" data-name="Layer 1" xmlns="http://www.w3.org/2000/svg" xmlns:xlink="http://www.w3.org/1999/xlink" viewBox="0 0 1498.2 1054.9"><defs><style>.cls-1{fill:url(#linear-gradient);}.cls-2{fill:url(#linear-gradient-2);}.cls-3{fill:url(#linear-gradient-3);}.cls-4{fill:#6883de;}</style><linearGradient id="linear-gradient" x1="637.91" y1="1055.69" x2="637.91" y2="1079.75" gradientUnits="userSpaceOnUse"><stop offset="0" stop-color="#ff636e"/><stop offset="1" stop-color="#f98d6c"/></linearGradient><linearGradient id="linear-gradient-2" x1="1519.56" y1="96.19" x2="1519.56" y2="120.26" xlink:href="#linear-gradient"/><linearGradient id="linear-gradient-3" x1="2101.43" y1="1082.62" x2="2101.43" y2="1106.68" xlink:href="#linear-gradient"/></defs><path class="cls-1" d="M620.57,1069.79a17.34,17.34,0,1,1,17.34,17.34A17.35,17.35,0,0,1,620.57,1069.79Zm7.75,0a9.59,9.59,0,1,0,9.59-9.59A9.6,9.6,0,0,0,628.32,1069.79Z" transform="translate(-620.57 -92.95)"/><path class="cls-2" d="M1502.22,110.3a17.34,17.34,0,1,1,17.34,17.34A17.36,17.36,0,0,1,1502.22,110.3Zm7.75,0a9.59,9.59,0,1,0,9.59-9.59A9.6,9.6,0,0,0,1510,110.3Z" transform="translate(-620.57 -92.95)"/><path class="cls-3" d="M2084.09,1096.72a17.34,17.34,0,1,1,17.34,17.34A17.36,17.36,0,0,1,2084.09,1096.72Zm7.75,0a9.59,9.59,0,1,0,9.59-9.59A9.6,9.6,0,0,0,2091.84,1096.72Z" transform="translate(-620.57 -92.95)"/><path class="cls-4" d="M1402.7,239.92V210.64a2.25,2.25,0,0,0-4.49,0v29.28a2.25,2.25,0,1,0,4.49,0Z" transform="translate(-620.57 -92.95)"/><path class="cls-4" d="M1415.09,223h-29.28a2.25,2.25,0,0,0,0,4.49h29.28a2.25,2.25,0,1,0,0-4.49Z" transform="translate(-620.57 -92.95)"/><path class="cls-4" d="M900.65,179.8V156.89a1.76,1.76,0,1,0-3.51,0V179.8a1.76,1.76,0,1,0,3.51,0Z" transform="translate(-620.57 -92.95)"/><path class="cls-4" d="M910.35,166.59H887.44a1.76,1.76,0,1,0,0,3.51h22.91a1.76,1.76,0,1,0,0-3.51Z" transform="translate(-620.57 -92.95)"/><path class="cls-4" d="M1008.82,1146.1v-22.92a1.76,1.76,0,0,0-3.51,0v22.92a1.76,1.76,0,0,0,3.51,0Z" transform="translate(-620.57 -92.95)"/><path class="cls-4" d="M1018.52,1132.88H995.61a1.76,1.76,0,1,0,0,3.52h22.91a1.76,1.76,0,1,0,0-3.52Z" transform="translate(-620.57 -92.95)"/></svg>